<svg width="110" height="110" viewBox="0 0 110 110" fill="none" xmlns="http://www.w3.org/2000/svg">
<path opacity="0.6" d="M55 110C70.1877 110 83.9377 103.844 93.8908 93.8908C103.844 83.9377 110 70.1877 110 55C110 39.8123 103.844 26.0623 93.8908 16.1091C83.9377 6.15609 70.1877 0 55 0C39.8123 0 26.0623 6.15609 16.1091 16.1091C6.15609 26.0623 0 39.8123 0 55C0 70.1877 6.15609 83.9377 16.1091 93.8908C26.0623 103.844 39.8123 110 55 110Z" fill="url(#paint0_radial_373_22404)"/>
<path d="M47.5754 47.5754L47.5754 47.5754C45.6758 49.475 44.5 52.1007 44.5 55C44.5 57.8993 45.6758 60.525 47.5754 62.4246L47.9289 62.0711L47.5754 62.4246C49.475 64.3242 52.1007 65.5 55 65.5C57.8993 65.5 60.525 64.3242 62.4246 62.4246C64.3242 60.525 65.5 57.8993 65.5 55C65.5 52.1007 64.3242 49.475 62.4246 47.5754L62.0711 47.9289L62.4246 47.5754C60.525 45.6758 57.8993 44.5 55 44.5C52.1007 44.5 49.475 45.6758 47.5754 47.5754Z" stroke="#0AD195" stroke-linejoin="round"/>
<path fill-rule="evenodd" clip-rule="evenodd" d="M49.3432 60.6568C50.7909 62.1046 52.7909 63 55 63C57.2091 63 59.2091 62.1046 60.6569 60.6568C62.1046 59.2091 63 57.2091 63 55C63 52.7909 62.1046 50.7909 60.6569 49.3431C59.2091 47.8954 57.2091 47 55 47C52.7909 47 50.7909 47.8954 49.3432 49.3431C47.8954 50.7909 47 52.7909 47 55C47 57.2091 47.8954 59.2091 49.3432 60.6568ZM53 52C52.4477 52 52 52.4477 52 53V57C52 57.5523 52.4477 58 53 58H57C57.5523 58 58 57.5523 58 57V53C58 52.4477 57.5523 52 57 52H53Z" fill="#0AD195"/>
<defs>
<radialGradient id="paint0_radial_373_22404" cx="0" cy="0" r="1" gradientUnits="userSpaceOnUse" gradientTransform="translate(55 55) rotate(90) scale(55)">
<stop offset="0.53125" stop-color="#0AD195" stop-opacity="0.2"/>
<stop offset="1" stop-color="#53DFB5"/>
</radialGradient>
</defs>
</svg>
