<svg width="424" height="140" viewBox="0 0 424 140" fill="none" xmlns="http://www.w3.org/2000/svg">
<g filter="url(#filter0_i_203_24780)">
<mask id="path-1-inside-1_203_24780" fill="white">
<path d="M0 4C0 1.79086 1.79086 0 4 0H420C422.209 0 424 1.79086 424 4V140H0V4Z"/>
</mask>
<path d="M0 4C0 1.79086 1.79086 0 4 0H420C422.209 0 424 1.79086 424 4V140H0V4Z" fill="#F8F8F8"/>
<path d="M190.754 64.4422H188.679L180.157 44.8098H185.27L189.843 55.5223L194.816 44.8098H198.708L203.681 55.5223L208.226 44.8098H213.34L204.845 64.4422H202.77L196.748 51.8005L190.754 64.4422Z" fill="#202020"/>
<path d="M223.123 44.813H217.526L209.712 64.1902H214.813L217.514 57.0293L218.894 60.353H224.936L226.528 64.1871H231.727L223.123 44.813ZM217.557 56.9716L220.398 49.4431L223.524 56.9716H217.557Z" fill="#202020"/>
<path d="M253.033 64.1871H248.971L238.258 51.7733V64.1871H233.428V44.813H237.86L248.202 56.6587V44.813H253.033V64.1871Z" fill="#202020"/>
<path d="M266.225 64.4423C259.121 64.4423 255.117 59.4415 255.117 54.4985C255.117 49.8106 258.924 44.5547 266.225 44.5547C273.525 44.5547 277.305 49.838 277.305 54.4985C277.305 59.4719 273.185 64.4423 266.225 64.4423ZM266.225 48.5893C262.53 48.5893 260.088 50.9469 260.088 54.4985C260.088 58.0501 262.53 60.4076 266.225 60.4076C269.889 60.4076 272.331 58.0501 272.331 54.4985C272.331 50.9469 269.892 48.5893 266.225 48.5893Z" fill="#202020"/>
<path d="M294.531 46.174V50.9773C292.374 49.3002 290.156 48.5043 288.157 48.5043C286.124 48.5043 284.626 49.2425 284.626 50.3514C284.626 51.4026 286.003 51.8006 289.22 52.4265C293.72 53.3075 295.843 55.1243 295.843 57.9376C295.843 61.8021 291.687 64.5 286.72 64.5C283.97 64.5 281.689 63.7891 279.346 62.428V57.5974C281.722 59.4719 284.283 60.4957 286.659 60.4957C288.628 60.4957 290.533 59.5296 290.533 58.0531C290.533 56.8591 289.378 56.291 286.221 55.7228C282.16 55.0119 279.346 53.4199 279.346 50.3241C279.346 46.7148 283.129 44.5 287.813 44.5C289.937 44.5 291.906 44.9527 294.531 46.174Z" fill="#202020"/>
<path d="M169.658 49.6511C169.658 49.6511 167.21 43.1146 161.964 43.3041C159.182 43.4044 157.479 45.7114 156.777 46.4748C156.777 46.4748 156.779 46.4776 156.782 46.4804L156.608 46.6531L155.74 47.4973C155.74 47.4973 156.734 46.589 157.76 47.5921C158.69 48.8291 159.943 51.0442 159.943 54.0254C159.943 57.0513 158.707 59.2384 157.777 60.456C157.757 60.4755 157.74 60.4922 157.718 60.5145C156.675 61.395 155.914 60.7263 155.804 60.6204L156.636 61.4451L156.765 61.5733L161.422 66.2068C163.262 68.1292 165.024 66.5773 166.561 64.4069C169.998 59.6647 170.829 55.4185 169.658 49.6511Z" fill="#1C1CB7"/>
<path d="M169.683 49.6872C169.18 47.1016 167.927 44.0395 165.999 41.6629C158.673 32.6356 151.033 38.1913 151.033 38.1913L141.493 46.4217C144 48.907 146.936 51.8186 146.936 51.8186C147.745 52.5152 148.341 52.7381 149.145 52.7632C150.381 52.7492 151.058 52.2254 153.528 49.7011C156.408 46.8118 158.527 44.7444 159.213 44.3126C160.045 43.8222 160.691 43.5798 162.318 43.5352C166.693 43.4071 169.497 49.3361 169.683 49.6872Z" fill="#3D3DFC"/>
<path d="M128.657 58.3495C128.657 58.3495 131.105 64.8859 136.351 64.6965C139.133 64.5962 140.835 62.2892 141.538 61.5258C141.538 61.5258 141.535 61.523 141.532 61.5202L141.707 61.3475L142.575 60.5032C142.575 60.5032 141.58 61.4115 140.554 60.4085C139.624 59.1714 138.371 56.9564 138.371 53.9751C138.371 50.9493 139.608 48.7621 140.538 47.5446C140.557 47.5251 140.574 47.5083 140.597 47.4861C141.639 46.6056 142.401 47.2743 142.51 47.3802L141.678 46.5555L141.549 46.4273L136.893 41.791C135.053 39.8686 133.291 41.4205 131.754 43.5909C128.317 48.3359 127.485 52.5793 128.657 58.3495Z" fill="#1C1CB7"/>
<path d="M128.632 58.3104C129.135 60.896 130.388 63.958 132.316 66.3346C139.641 75.3648 147.282 69.809 147.282 69.809L156.821 61.5758C154.315 59.0905 151.379 56.1789 151.379 56.1789C150.569 55.4823 149.974 55.2595 149.17 55.2344C147.934 55.2483 147.256 55.7721 144.786 58.2964C141.906 61.1857 139.787 63.2559 139.102 63.6877C138.27 64.1781 137.624 64.4205 135.997 64.4651C131.622 64.5933 128.814 58.6614 128.632 58.3104Z" fill="#3D3DFC"/>
<path d="M100.328 88.936L99.464 89.56C100.112 90.232 100.64 90.856 101.048 91.42L101.936 90.808C101.552 90.256 101.024 89.632 100.328 88.936ZM104.636 93.976L103.724 94.552C104.492 95.476 105.092 96.316 105.548 97.072L106.556 96.376C106.1 95.692 105.464 94.888 104.636 93.976ZM102.8 88.66V90.352C102.788 90.76 102.764 91.156 102.74 91.54H98.984V92.656H102.62C102.452 93.772 102.2 94.744 101.852 95.572C101.276 96.832 100.184 97.864 98.576 98.68L99.212 99.688C100.844 98.92 102.008 97.84 102.716 96.436C103.208 95.416 103.556 94.156 103.748 92.656H107.6C107.6 94.108 107.552 95.452 107.48 96.688C107.396 97.912 107.084 98.548 106.532 98.596C105.992 98.596 105.392 98.56 104.744 98.5L105.044 99.604C105.464 99.64 105.98 99.664 106.604 99.664C107.42 99.664 107.984 99.184 108.308 98.224C108.608 97.264 108.764 95.044 108.764 91.54H103.856C103.88 91.156 103.904 90.76 103.916 90.352V88.66H102.8ZM120.152 91.42V92.512H121.592V99.292H130.628V98.128H122.756V92.512H124.916V96.292H129.32V92.512H131.036V91.42H129.32V88.696H128.204V91.42H126.032V88.696H124.916V91.42H122.756V88.804H121.592V91.42H120.152ZM126.032 92.512H128.204V95.188H126.032V92.512ZM143 89.056V94.024H145.064C144.296 94.756 143.132 95.368 141.572 95.86L142.184 96.856C143.264 96.424 144.176 95.92 144.944 95.356C144.92 96.124 144.788 96.76 144.548 97.252C144.212 97.888 143.516 98.428 142.46 98.86L143.216 99.772C144.5 99.196 145.316 98.488 145.664 97.624C145.952 96.952 146.096 96.124 146.096 95.164H145.184C145.616 94.816 145.988 94.432 146.312 94.024H148.088C148.376 94.42 148.724 94.804 149.156 95.176H148.496V99.76H149.648V95.56C150.368 96.088 151.256 96.556 152.312 96.964L152.804 95.956C151.244 95.476 150.08 94.828 149.312 94.024H151.448V89.056H143ZM150.356 93.028H147.752V91.996H150.356V93.028ZM146.648 93.028H144.092V91.996H146.648V93.028ZM144.092 91.06V90.064H146.648V91.06H144.092ZM147.752 90.064H150.356V91.06H147.752V90.064ZM163.424 89.872V90.952H165.116V92.104H166.184V90.952H168.2V92.152H169.304V90.952H171.356V92.104H172.436V90.952H174.176V89.872H172.436V88.744H171.356V89.872H169.304V88.696H168.2V89.872H166.184V88.744H165.116V89.872H163.424ZM173.864 92.728H163.724V95.176H164.828V93.808H168.212V94.852H165.2V98.932H166.304V95.92H168.212V99.712H169.34V95.92H171.308V97.456C171.308 97.732 171.2 97.876 170.984 97.876L169.988 97.816L170.276 98.92H171.356C172.064 98.92 172.424 98.512 172.424 97.696V94.852H169.34V93.808H172.76V95.128H173.864V92.728ZM187.568 91.384L186.572 91.864C186.956 92.44 187.328 93.1 187.676 93.832H185.132V94.924H188.9C188.18 96.16 186.8 97.276 184.772 98.272L185.396 99.304C187.58 98.08 189.056 96.628 189.824 94.948V99.712H190.976V94.984C191.816 96.568 193.232 97.996 195.248 99.292L196.028 98.308C194.096 97.3 192.716 96.172 191.876 94.924H195.644V93.832H193.136C193.532 93.196 193.892 92.488 194.216 91.696L193.112 91.3C192.8 92.188 192.44 93.04 192.008 93.832H190.976V91.084H195.296V89.992H190.976V88.708H189.824V89.992H185.6V91.084H189.824V93.832H187.736L188.66 93.364C188.312 92.644 187.952 91.984 187.568 91.384ZM207.596 88.876L206.792 89.656C207.632 90.304 208.28 90.892 208.748 91.444L209.564 90.64C209.024 90.052 208.364 89.464 207.596 88.876ZM207.32 91.672L206.504 92.464C207.356 93.112 208.016 93.724 208.484 94.288L209.3 93.472C208.76 92.872 208.1 92.272 207.32 91.672ZM208.448 94.972C207.968 96.388 207.416 97.78 206.768 99.136L207.872 99.628C208.46 98.308 209 96.892 209.48 95.392L208.448 94.972ZM217.016 89.068H209.876V91.804H210.992V90.124H215.9V91.804H217.016V89.068ZM211.436 95.116C211.412 96.82 210.728 98.104 209.408 98.956L210.32 99.772C211.7 98.764 212.42 97.252 212.492 95.236V92.956H214.352V98.212C214.352 99.04 214.736 99.46 215.516 99.46H216.092C216.788 99.46 217.196 99.172 217.316 98.596C217.4 98.176 217.448 97.456 217.46 96.436L216.44 96.136C216.44 96.916 216.428 97.528 216.416 97.972C216.392 98.308 216.272 98.476 216.08 98.476H215.696C215.504 98.464 215.396 98.332 215.396 98.08V91.948H211.436V95.116ZM229.904 95.368C229.412 96.688 228.836 97.96 228.188 99.208L229.316 99.712C229.904 98.476 230.432 97.156 230.9 95.752L229.904 95.368ZM237.944 93.052V89.032H231.908V89.944H236.924V90.592H232.292V91.504H236.924V92.116H231.968V93.052H237.944ZM238.736 93.604H231.236V95.644H232.028V96.22H232.496C232.82 96.82 233.324 97.372 234.008 97.876C233.144 98.236 232.112 98.524 230.912 98.764L231.332 99.76C232.796 99.436 234.044 99.016 235.052 98.512C235.94 98.968 237.056 99.364 238.388 99.688L238.988 98.752C237.884 98.512 236.912 98.212 236.096 97.876C236.768 97.372 237.284 96.808 237.632 96.172V95.284H232.304V94.552H237.656V95.692H238.736V93.604ZM233.636 96.22H236.408C236.06 96.64 235.604 97.024 235.04 97.36C234.452 97.024 233.984 96.64 233.636 96.22ZM229.1 88.84L228.296 89.62C229.172 90.244 229.856 90.832 230.348 91.384L231.14 90.592C230.576 90.016 229.892 89.428 229.1 88.84ZM228.812 91.768L228.008 92.548C228.896 93.172 229.58 93.772 230.06 94.324L230.852 93.52C230.3 92.944 229.628 92.356 228.812 91.768ZM252.2 91.42V92.344H256.172V91.42H252.2ZM252.44 92.956V95.536H255.944V92.956H252.44ZM254.888 94.672H253.508V93.82H254.888V94.672ZM260.216 89.644H259.484C259.4 89.272 259.316 88.936 259.232 88.648L258.224 88.816C258.32 89.08 258.416 89.356 258.5 89.644H257.516C257.504 89.32 257.504 88.972 257.504 88.612H256.412C256.412 88.96 256.412 89.308 256.424 89.644H250.664V92.08C250.64 93.424 250.304 94.468 249.668 95.236L250.532 95.992C251.324 95.008 251.732 93.7 251.78 92.08V90.676H256.484C256.544 91.624 256.664 92.416 256.844 93.052C256.976 93.508 257.132 93.928 257.3 94.3C256.94 94.708 256.544 95.032 256.112 95.284L256.688 96.16C257.096 95.92 257.48 95.608 257.84 95.224C257.864 95.272 257.9 95.308 257.948 95.356C258.392 95.848 258.848 96.1 259.328 96.1C259.88 96.1 260.36 95.464 260.744 94.192L259.832 93.652C259.604 94.576 259.4 95.044 259.22 95.044C258.992 95.044 258.752 94.828 258.488 94.42C258.992 93.664 259.436 92.728 259.796 91.612L258.92 91.156C258.668 91.96 258.368 92.668 258.008 93.292C257.936 93.04 257.864 92.776 257.804 92.488C257.684 92.02 257.612 91.42 257.564 90.676H260.216V89.644ZM250.976 96.16C250.724 97.072 250.316 97.936 249.752 98.728L250.712 99.352C251.264 98.512 251.708 97.528 252.02 96.388L250.976 96.16ZM256.832 99.544C257.276 99.544 257.612 99.448 257.84 99.28C258.068 99.076 258.224 98.488 258.32 97.504L257.228 97.156C257.192 97.792 257.12 98.176 257.024 98.296C256.94 98.416 256.808 98.476 256.616 98.476H254.168C253.904 98.476 253.784 98.32 253.784 98.008V96.04H252.632V98.236C252.632 99.1 253.028 99.544 253.82 99.544H256.832ZM259.196 96.364L258.284 96.928C258.932 97.72 259.448 98.44 259.832 99.088L260.744 98.452C260.384 97.852 259.868 97.156 259.196 96.364ZM255.344 95.812L254.492 96.34C255.008 96.94 255.416 97.48 255.716 97.972L256.58 97.384C256.292 96.928 255.872 96.412 255.344 95.812ZM273.224 88.552C273.104 89.344 272.96 90.112 272.816 90.856H271.424V91.948H272.576C272.288 93.136 271.976 94.24 271.616 95.272C272.264 95.752 272.864 96.208 273.416 96.652C272.876 97.504 272.18 98.236 271.328 98.848L272.108 99.808C272.984 99.136 273.716 98.32 274.304 97.384C274.832 97.84 275.3 98.272 275.684 98.668L276.464 97.768C276.056 97.36 275.516 96.892 274.844 96.376C275.492 94.984 275.864 93.352 275.948 91.48V90.856H273.944C274.076 90.172 274.208 89.44 274.34 88.648L273.224 88.552ZM273.932 95.692C273.608 95.452 273.248 95.188 272.864 94.924C273.152 94.12 273.44 93.124 273.716 91.948H274.832C274.736 93.34 274.436 94.588 273.932 95.692ZM276.236 93.604V94.708H278.84V97.924C278.84 98.332 278.72 98.536 278.492 98.536C277.916 98.536 277.376 98.524 276.884 98.524L277.184 99.604H278.96C279.632 99.604 279.98 99.16 279.98 98.272V94.708H282.32V93.604H279.98V92.572C280.688 91.852 281.324 91.096 281.888 90.292V89.188H276.572V90.292H280.58C280.028 91.036 279.44 91.684 278.84 92.224V93.604H276.236ZM293.156 89.548V90.58H297.824V91.432H293.816V92.452H303.008V91.432H298.976V90.58H303.632V89.548H298.976V88.672H297.824V89.548H293.156ZM297.944 94.144V95.32H295.172C295.172 95.176 295.184 95.02 295.184 94.876V94.144H297.944ZM299.096 95.32V94.144H301.688V95.32H299.096ZM295.076 96.328H302.792V93.148H294.056V94.876C294.044 96.556 293.648 97.936 292.856 98.992L293.804 99.832C294.476 98.812 294.896 97.648 295.076 96.328ZM323.876 94.264H316.172V99.736H317.312V99.256H322.736V99.736H323.876V94.264ZM317.312 98.272V97.264H322.736V98.272H317.312ZM317.312 96.292V95.26H322.736V96.292H317.312ZM315.236 89.74V90.796H317.084C317.276 91.3 317.468 91.852 317.648 92.452H314.672V93.508H325.328V92.452H322.292C322.556 91.924 322.772 91.372 322.928 90.796H324.776V89.74H320.624C320.468 89.296 320.312 88.9 320.144 88.54L318.92 88.732C319.112 89.044 319.28 89.38 319.448 89.74H315.236ZM318.272 90.796H321.8C321.656 91.372 321.44 91.924 321.176 92.452H318.764C318.608 91.852 318.44 91.3 318.272 90.796Z" fill="#636468"/>
<path d="M0 0H424H0ZM424 141H0V139H424V141ZM0 140V0V140ZM424 0V140V0Z" fill="#E7E7E7" mask="url(#path-1-inside-1_203_24780)"/>
</g>
<defs>
<filter id="filter0_i_203_24780" x="0" y="0" width="424" height="140" filterUnits="userSpaceOnUse" color-interpolation-filters="sRGB">
<feFlood flood-opacity="0" result="BackgroundImageFix"/>
<feBlend mode="normal" in="SourceGraphic" in2="BackgroundImageFix" result="shape"/>
<feColorMatrix in="SourceAlpha" type="matrix" values="0 0 0 0 0 0 0 0 0 0 0 0 0 0 0 0 0 0 127 0" result="hardAlpha"/>
<feOffset dy="2"/>
<feComposite in2="hardAlpha" operator="arithmetic" k2="-1" k3="1"/>
<feColorMatrix type="matrix" values="0 0 0 0 1 0 0 0 0 1 0 0 0 0 1 0 0 0 1 0"/>
<feBlend mode="normal" in2="shape" result="effect1_innerShadow_203_24780"/>
</filter>
</defs>
</svg>
