<svg width="17" height="14" viewBox="0 0 17 14" fill="none" xmlns="http://www.w3.org/2000/svg">
<path d="M16.4638 5.26027C16.4638 5.26027 15.4918 2.64545 13.4115 2.72109C12.3071 2.76018 11.6326 3.68306 11.354 3.98942L11.2846 4.05876L10.9404 4.39665C11.0517 4.29565 11.1985 4.24292 11.3485 4.25001C11.4986 4.2571 11.6398 4.32344 11.741 4.43447C12.2992 5.17708 12.603 6.07995 12.6072 7.00895C12.6097 7.93706 12.3082 8.84046 11.7486 9.58091L11.7246 9.60486C11.3111 9.95661 11.0098 9.68933 10.9682 9.64647L11.2985 9.97679L11.3502 10.0272L13.1972 11.8818C13.9272 12.6509 14.6256 12.0293 15.2359 11.1619C16.5987 9.2695 16.9278 7.56747 16.4638 5.26027Z" fill="#1C1CB7"/>
<path d="M16.4734 5.27529C16.2426 4.10625 15.7423 3.00716 15.0122 2.06538C12.1124 -1.54797 9.07526 0.678543 9.07526 0.678543L5.29297 3.97166L7.45266 6.13135C7.77289 6.40998 8.00992 6.49949 8.32763 6.50958C8.81807 6.50958 9.08409 6.29399 10.0675 5.28412C11.2097 4.128 12.0507 3.30093 12.3217 3.12821C12.652 2.93153 12.908 2.83571 13.5548 2.8168C15.287 2.76133 16.4003 5.13409 16.4734 5.27529Z" fill="#3D3DFC"/>
<path d="M0.198472 8.73981C0.198472 8.73981 1.16926 11.3546 3.25078 11.279C4.35521 11.2399 5.02972 10.317 5.30835 10.0107L5.37769 9.94132L5.72188 9.60344C5.61063 9.70443 5.46386 9.75717 5.31377 9.75008C5.16368 9.74298 5.02253 9.67664 4.9213 9.56561C4.36252 8.8233 4.05869 7.92024 4.05515 6.99113C4.05257 6.06302 4.35415 5.15963 4.91373 4.41918L4.93642 4.39522C5.35122 4.04347 5.65254 4.31075 5.69288 4.35362L5.36256 4.0233L5.31213 3.97286L3.46512 2.11828C2.73513 1.34921 2.03541 1.97077 1.42646 2.83817C0.0635764 4.73058 -0.26675 6.43261 0.198472 8.73981Z" fill="#1C1CB7"/>
<path d="M0.188477 8.72476C0.418191 9.89416 0.91863 10.9935 1.6497 11.9347C4.55576 15.548 7.58664 13.3215 7.58664 13.3215L11.3689 10.0284L9.20924 7.86871C8.88775 7.59008 8.65198 7.50056 8.33301 7.49048C7.84257 7.49048 7.57655 7.70607 6.59442 8.71594C5.45217 9.87206 4.61124 10.6991 4.34017 10.8718C4.00985 11.0685 3.75391 11.1643 3.10714 11.1833C1.37359 11.2387 0.261601 8.86597 0.188477 8.72476Z" fill="#3D3DFC"/>
</svg>
