<svg width="20" height="20" viewBox="0 0 20 20" fill="none" xmlns="http://www.w3.org/2000/svg">
<path d="M13.3332 5.00001C13.3332 3.15906 11.8408 1.66667 9.99984 1.66667C8.15889 1.66667 6.6665 3.15906 6.6665 5.00001V10C6.6665 11.841 8.15889 13.3333 9.99984 13.3333C11.8408 13.3333 13.3332 11.841 13.3332 10V5.00001Z" stroke="#565656" stroke-width="1.4" stroke-linecap="round" stroke-linejoin="round"/>
<path d="M4.1665 8.75V10C4.1665 13.2217 6.77817 15.8333 9.99984 15.8333C13.2215 15.8333 15.8332 13.2217 15.8332 10V8.75" stroke="#565656" stroke-width="1.4" stroke-linecap="round" stroke-linejoin="round"/>
<path d="M6.6665 6.66667H8.74984" stroke="#565656" stroke-width="1.4" stroke-linecap="round" stroke-linejoin="round"/>
<path d="M11.25 6.66667H13.3333" stroke="#565656" stroke-width="1.4" stroke-linecap="round" stroke-linejoin="round"/>
<path d="M6.6665 9.16667H8.74984" stroke="#565656" stroke-width="1.4" stroke-linecap="round" stroke-linejoin="round"/>
<path d="M11.25 9.16667H13.3333" stroke="#565656" stroke-width="1.4" stroke-linecap="round" stroke-linejoin="round"/>
<path d="M10 15.8333V18.3333" stroke="#565656" stroke-width="1.4"/>
<path d="M6.6665 18.3333H13.3332" stroke="#565656" stroke-width="1.4" stroke-linecap="round" stroke-linejoin="round"/>
</svg>
