<svg width="260" height="60" viewBox="0 0 260 60" fill="none" xmlns="http://www.w3.org/2000/svg">
<path d="M0 0H260V60H0V0Z" fill="#F5F5F5"/>
<path d="M83.5224 39.9082H81.7067L74.25 21.2938H78.724L82.7249 31.4508L87.0766 21.2938H90.482L94.8337 31.4508L98.8106 21.2938H103.285L95.8519 39.9082H94.0362L88.7673 27.9221L83.5224 39.9082Z" fill="#2D2D2D"/>
<path d="M111.844 21.2968H106.948L100.11 39.6692H104.574L106.937 32.8796L108.144 36.031H113.431L114.824 39.6663H119.373L111.844 21.2968ZM106.974 32.8249L109.46 25.6868L112.195 32.8249H106.974Z" fill="#2D2D2D"/>
<path d="M138.016 39.6663H134.462L125.088 27.8962V39.6663H120.861V21.2968H124.74L133.789 32.5282V21.2968H138.016V39.6663Z" fill="#2D2D2D"/>
<path d="M149.559 39.9083C143.344 39.9083 139.84 35.1668 139.84 30.4801C139.84 26.0353 143.171 21.0519 149.559 21.0519C155.947 21.0519 159.254 26.0612 159.254 30.4801C159.254 35.1956 155.649 39.9083 149.559 39.9083ZM149.559 24.8773C146.326 24.8773 144.189 27.1127 144.189 30.4801C144.189 33.8475 146.326 36.0828 149.559 36.0828C152.765 36.0828 154.902 33.8475 154.902 30.4801C154.902 27.1127 152.767 24.8773 149.559 24.8773Z" fill="#2D2D2D"/>
<path d="M174.327 22.5872V27.1414C172.439 25.5513 170.498 24.7966 168.749 24.7966C166.971 24.7966 165.66 25.4966 165.66 26.548C165.66 27.5447 166.865 27.9221 169.68 28.5155C173.617 29.3508 175.475 31.0734 175.475 33.7409C175.475 37.405 171.838 39.963 167.492 39.963C165.086 39.963 163.09 39.2889 161.04 37.9984V33.4182C163.119 35.1956 165.36 36.1663 167.439 36.1663C169.161 36.1663 170.828 35.2503 170.828 33.8503C170.828 32.7183 169.818 32.1796 167.056 31.6409C163.502 30.9669 161.04 29.4574 161.04 26.5221C161.04 23.1 164.35 21 168.449 21C170.307 21 172.03 21.4292 174.327 22.5872Z" fill="#2D2D2D"/>
<path d="M63.5729 26.3657C63.5729 26.3657 61.4726 20.7159 56.9779 20.8793C54.5916 20.9638 53.1342 22.9578 52.5322 23.6198L52.3824 23.7696L51.6387 24.4996C51.8791 24.2814 52.1962 24.1675 52.5205 24.1828C52.8448 24.1981 53.1497 24.3415 53.3685 24.5814C54.5746 26.1859 55.2309 28.1367 55.2399 30.144C55.2455 32.1493 54.5939 34.1012 53.3848 35.7011L53.3331 35.7529C52.4396 36.5129 51.7885 35.9354 51.6986 35.8428L52.4123 36.5565L52.524 36.6654L56.5148 40.6726C58.092 42.3343 59.6012 40.9913 60.9196 39.1171C63.8644 35.0283 64.5754 31.3507 63.5729 26.3657Z" fill="#1C1CB7"/>
<path d="M63.5947 26.3981C63.096 23.8722 62.0149 21.4975 60.4375 19.4626C54.1721 11.6554 47.6098 16.4661 47.6098 16.4661L39.4375 23.5814L44.1039 28.2478C44.7958 28.8498 45.3079 29.0432 45.9944 29.065C47.0541 29.065 47.6288 28.5992 49.7536 26.4172C52.2217 23.9192 54.0386 22.1322 54.6243 21.759C55.338 21.3341 55.891 21.127 57.2885 21.0862C61.0314 20.9663 63.4367 26.093 63.5947 26.3981Z" fill="#3D3DFC"/>
<path d="M28.4288 33.8839C28.4288 33.8839 30.5264 39.5337 35.0239 39.3702C37.4102 39.2858 38.8676 37.2918 39.4696 36.6298L39.6194 36.48L40.3631 35.7499C40.1227 35.9681 39.8056 36.0821 39.4813 36.0668C39.157 36.0514 38.852 35.9081 38.6333 35.6682C37.4259 34.0643 36.7695 32.1131 36.7618 30.1056C36.7563 28.1003 37.4079 26.1483 38.6169 24.5485L38.666 24.4967C39.5622 23.7367 40.2133 24.3142 40.3004 24.4068L39.5867 23.6931L39.4777 23.5841L35.487 19.577C33.9097 17.9153 32.3978 19.2583 31.0821 21.1324C28.1374 25.2213 27.4236 28.8988 28.4288 33.8839Z" fill="#1C1CB7"/>
<path d="M28.4072 33.8513C28.9036 36.378 29.9848 38.7533 31.5644 40.7869C37.8435 48.5941 44.3922 43.7834 44.3922 43.7834L52.5645 36.668L47.8981 32.0017C47.2034 31.3997 46.694 31.2062 46.0048 31.1844C44.9452 31.1844 44.3704 31.6503 42.2483 33.8323C39.7803 36.3302 37.9633 38.1173 37.3777 38.4905C36.6639 38.9154 36.1109 39.1224 34.7135 39.1633C30.9679 39.2832 28.5652 34.1564 28.4072 33.8513Z" fill="#3D3DFC"/>
</svg>
