<svg width="51" height="51" viewBox="0 0 51 51" fill="none" xmlns="http://www.w3.org/2000/svg">
<circle cx="25.0002" cy="25.5" r="16" fill="url(#paint0_linear_373_18556)"/>
<circle cx="25.0002" cy="25.5" r="15" stroke="#636468" stroke-opacity="0.4" stroke-width="2"/>
<path d="M25.0002 41.5C22.0139 41.5 19.0872 40.6642 16.5512 39.0872C14.0152 37.5102 11.9711 35.255 10.6503 32.5766C9.32946 29.8983 8.78458 26.9037 9.07729 23.9317C9.37 20.9598 10.4886 18.129 12.3066 15.7598C14.1246 13.3906 16.5693 11.5774 19.3642 10.5255C22.1592 9.47357 25.1927 9.22483 28.1217 9.80744C31.0506 10.39 33.7581 11.7807 35.9377 13.8222C38.1173 15.8636 39.6821 18.4743 40.4551 21.3589L38.5232 21.8765C37.8469 19.3525 36.4777 17.0682 34.5705 15.2819C32.6634 13.4956 30.2943 12.2788 27.7315 11.769C25.1687 11.2592 22.5143 11.4769 20.0687 12.3973C17.6232 13.3178 15.484 14.9043 13.8933 16.9773C12.3026 19.0504 11.3238 21.5273 11.0677 24.1278C10.8115 26.7282 11.2883 29.3485 12.444 31.692C13.5997 34.0356 15.3883 36.009 17.6073 37.3888C19.8263 38.7687 22.3872 39.5 25.0002 39.5V41.5Z" fill="#4285F4"/>
<rect x="19.0002" y="19.5" width="12" height="12" rx="2" fill="#636468"/>
<defs>
<linearGradient id="paint0_linear_373_18556" x1="25.0002" y1="9.5" x2="25.0002" y2="41.5" gradientUnits="userSpaceOnUse">
<stop stop-color="white" stop-opacity="0.15"/>
<stop offset="1" stop-color="white" stop-opacity="0.1"/>
</linearGradient>
</defs>
</svg>
